<svg id="Layer_1" data-name="Layer 1" xmlns="http://www.w3.org/2000/svg" viewBox="0 0 414.28 410.91"><defs><style>.cls-1{fill:#f9f9f9;}</style></defs><title>Untitled-1</title><path class="cls-1" d="M207.13,0C92.92,0,0,92.92,0,207.14A206.87,206.87,0,0,0,78.4,369.3c18.22-2.73,45.93-9.05,46.9-22.31,1.45-19.81-19.8-20-19.81-47.83,0-32,118.86-33.34,118.38-43.49s-67.3-10.55-66.06-31.21c1.11-18.68,69.07-16.72,69-24.84-.09-6.79-18.05-11.6-18.05-11.6h0s40.82,2.6,40.76,11.11c-.05,7.47-48.32,15-48.32,26.09s100.5,18,100.5,35.27c0,16.89-98.71,16.58-98.44,40.14.31,26.86,56.5,39.25,57.37,82.09.21,10.58-6.51,20.05-16.14,28.18,96.47-17.62,169.83-102.29,169.83-203.77C414.27,92.92,321.35,0,207.13,0ZM342.34,149.54l-29,29L210.44,67.39,108.53,177.09l-28-28L18.1,211.49c.34-104,85-188.54,189.13-188.54,101.37,0,184.35,80.16,188.94,180.41Z"/></svg>